<?xml version="1.0" encoding="utf-8"?>
<!-- Generator: Adobe Illustrator 16.0.4, SVG Export Plug-In . SVG Version: 6.00 Build 0)  -->
<!DOCTYPE svg PUBLIC "-//W3C//DTD SVG 1.1//EN" "http://www.w3.org/Graphics/SVG/1.1/DTD/svg11.dtd">
<svg version="1.1" xmlns="http://www.w3.org/2000/svg" xmlns:xlink="http://www.w3.org/1999/xlink" x="0px" y="0px"
	 width="219.802px" height="157.761px" viewBox="0 0 219.802 157.761" enable-background="new 0 0 219.802 157.761"
	 xml:space="preserve">
<g id="Layer_1">
	<g>
		<polygon fill="#FFFFFF" points="211.881,135.643 173.267,157.761 59.901,157.761 19.307,135.643 0,67.822 33.168,11.881 
			101.485,0 174.257,16.336 219.802,72.772 		"/>
		<polygon fill="#3A3837" points="211.881,135.643 173.267,157.761 59.901,157.761 19.307,135.643 0,67.822 33.168,11.881 
			101.485,0 174.257,16.336 219.802,72.772 		"/>
	</g>
</g>
<g id="Layer_3">
</g>
<g id="Layer_2">
	<path fill="#785C47" d="M19.307,135.643c0,0,46.535-42.08,46.535-42.574s-5.941,64.692-5.941,64.692L19.307,135.643z"/>
	<polygon fill="#785C47" points="173.267,157.761 104.456,131.188 59.901,157.761 	"/>
	<polygon fill="#785C47" points="211.881,135.643 188.614,131.188 173.267,157.761 	"/>
	<polygon fill="#57473C" points="0,67.822 22.772,88.119 18.749,133.681 	"/>
	<g>
		<polygon fill="#785C47" points="19.307,135.643 22.772,85.644 33.664,103.465 65.842,93.069 		"/>
		<polygon fill="#563D2F" points="19.307,135.643 22.772,85.644 33.664,103.465 65.842,93.069 		"/>
	</g>
	<polygon fill="#57473C" points="22.772,85.644 0,67.822 33.168,11.881 	"/>
	<polygon fill="#57473C" points="101.485,0 52.97,23.762 33.168,11.881 	"/>
	<polygon fill="#57473C" points="174.257,16.336 176.733,35.148 101.485,0 	"/>
	<polygon fill="#57473C" points="219.802,72.772 176.733,35.148 174.257,16.336 	"/>
	<polygon fill="#57473C" points="211.881,135.643 188.614,131.188 218.444,71.089 	"/>
	<polygon fill="#57473C" points="104.456,128.712 188.614,131.188 173.267,157.761 	"/>
	<polygon fill="#8C796C" points="67.327,89.604 104.456,125.414 59.901,155.446 65.842,89.604 25.743,85.644 52.475,26.732 
		101.485,2.475 215.346,71.089 	"/>
	<g>
		<polygon fill="#896F60" points="188.614,131.188 211.881,75.248 73.268,93.066 		"/>
		<polygon fill="#896F60" points="188.614,131.188 211.881,75.248 73.268,93.066 		"/>
	</g>
	<g>
		<path fill="#8E7466" d="M134.654,60.891"/>
		<path fill="#8E7466" d="M134.654,60.891"/>
	</g>
	<path fill="#8E7466" d="M77.228,60.891"/>
</g>
<g id="Layer_4">
	<circle fill="#FFFFFF" cx="67.327" cy="71.089" r="25.99"/>
	<ellipse cx="59.901" cy="64.604" rx="13.985" ry="14.356"/>
	<circle fill="#FFFFFF" cx="168.069" cy="57.345" r="21.535"/>
	<ellipse cx="180.768" cy="60.892" rx="7.501" ry="8.208"/>
</g>
</svg>
